<svg width="58" height="60" fill="none" xmlns="http://www.w3.org/2000/svg"><path d="M55 0H3a3 3 0 0 0-3 3v37.4a3 3 0 0 0 3 3h15.7v5.3a11.4 11.4 0 0 0 22.7 0v-5.3h13.5a3 3 0 0 0 3-3V3a3 3 0 0 0-3-3ZM2 11.3h8.4V15a2.5 2.5 0 0 0 5 .4h1.2v1.3c0 .3 0 .6-.3.8L13 20.7h-1.6a2 2 0 0 0-2 2v.5h-.2c-.7-.2-1.4-.8-1.6-1.5l-2-6.1a3 3 0 0 0-3-2.1H2v-2.2Zm16.7 30.2H3.1c-.6 0-1.1-.5-1.1-1.1v-25h.6c.5 0 1 .3 1 .8l2.1 6.1A4 4 0 0 0 9 25l3.6.6V30c0 .5.4 1 1 1s1 .5 1 1v6.3a1 1 0 0 0 1.8.5l2.4-3.5v6.2Zm-4.3-12.3v-3.4h.9l3.4 1.7v4.3L16.5 35v-3a3 3 0 0 0-2-3Zm25 19.5a9.4 9.4 0 0 1-18.8 0V24.3a1.6 1.6 0 0 1 1.8-1.6c.8 0 1.5.8 1.5 1.7v14.4a1 1 0 1 0 2 0 1.6 1.6 0 0 1 1.7-1.6c.8 0 1.5.9 1.5 1.8v.8a1 1 0 0 0 2 0 1.6 1.6 0 0 1 1.7-1.6c.8.1 1.4.9 1.4 1.8v.9a1 1 0 1 0 2 0 1.6 1.6 0 0 1 1.8-1.6c.8 0 1.4.8 1.4 1.7v7.7ZM56 40.4c0 .6-.5 1-1 1H41.3V41c0-1.9-1.4-3.5-3.2-3.7a4 4 0 0 0-2.5.7 3.6 3.6 0 0 0-5.2-1 3.6 3.6 0 0 0-4.6-1.4V28h1c.6 0 1.1.5 1.1 1v4.2c0 .5.5 1 1 1h1a4 4 0 0 0 4.1-4.1v-1.8l2.7-4.5h1.6V26a1 1 0 0 0 1.7.6l2.4-2.4 1.4 1.4a1 1 0 0 0 1.5-.1l2-3.2.2-.5c0-.6.5-1 1.1-1a3 3 0 0 0 3-3.1v-1l.1-.1h1.5l-.3.6a1 1 0 1 0 1.8.9l.7-1.5h.5v23.9Zm0-25.9h-4.2a2 2 0 0 0-2 2v1c0 .7-.5 1.2-1.1 1.2a3 3 0 0 0-3 2.7l-1.3 1.9-1.2-1.2a1 1 0 0 0-1.4 0l-1.5 1.4v-.8c0-.5-.4-1-1-1h-3a1 1 0 0 0-.9.5l-3 5.2c-.2.2-.2.4-.2.5V30c0 1.2-1 2.1-2.2 2.1V29a3 3 0 0 0-3-3h-1.2v-3.3h6.3c.5 0 1-.5 1-1v-2a2 2 0 0 0-2-2h-2.2v-.1c0-.6.5-1.1 1.1-1.1h1c.6 0 1-.5 1-1V13l10.7-6h.9a2 2 0 0 0 2 2.1h2.7l1.5 1.5c.4.4.9.6 1.4.6H56v3.2Zm-29 6.2c0-.6.5-1.1 1-1.1h3.2v1.1H27ZM56 9.3h-4.8l-1.5-1.5a2 2 0 0 0-1.4-.5h-2.7V6.2c0-.6-.5-1-1-1h-2.1a1 1 0 0 0-.5.1L31.6 11a2 2 0 0 0-2.7-.4l-1.5 1a1 1 0 1 0 1.1 1.6l1.5-1h.1v2.3a3 3 0 0 0-3.1 3v.3a3 3 0 0 0-2 2.9v.3a2 2 0 0 0-.6.4c-.5-.3-1.1-.6-1.8-.6a3.6 3.6 0 0 0-3.9 3.5v1L16 24a1 1 0 0 0-.5 0h-2l-2.2-.4v-.8h2.1c.3 0 .6-.1.7-.3l3.6-3.5a3 3 0 0 0 .9-2.2v-1.2a2 2 0 0 0-2-2h-2.1a1 1 0 0 0-1 1v.5a.6.6 0 0 1-1.2 0V9.3a1 1 0 0 0-1.9 0H2V3c0-.6.5-1 1-1h52c.5 0 1 .4 1 1v6.3Z" fill="#000"/></svg>