<svg width="1024" height="1024" xmlns="http://www.w3.org/2000/svg" class="icon"><path d="m960 509.2-.1-7.6-.5-26.9c-.8-27.9-2.2-55.7-4.4-81.9-3-36.1-7.4-66.2-13.4-88.8a139.5 139.5 0 0 0-98.3-98.5c-28.3-7.6-83.7-12.3-161.7-15.2-37.1-1.4-76.8-2.3-116.5-2.8l-38.4-.4h-29.4l-38.4.4c-39.7.5-79.4 1.4-116.5 2.8-78 3-133.5 7.7-161.7 15.2A139.3 139.3 0 0 0 82.4 304 524 524 0 0 0 69 392.8c-2.2 26.2-3.6 54-4.4 81.9-.3 9.7-.4 18.8-.5 26.9l-.1 7.6v5.6l.1 7.6.5 26.9c.8 27.9 2.2 55.7 4.4 81.9 3 36.1 7.4 66.2 13.4 88.8a139.3 139.3 0 0 0 98.3 98.5c28.2 7.6 83.7 12.3 161.7 15.2 37.1 1.4 76.8 2.3 116.5 2.8l38.4.4h29.4l38.4-.4c39.7-.5 79.4-1.4 116.5-2.8 78-3 133.5-7.7 161.7-15.2a139.2 139.2 0 0 0 98.3-98.5 524 524 0 0 0 13.4-88.8c2.2-26.2 3.6-54 4.4-81.9.3-9.7.4-18.8.5-26.9l.1-7.6v-5.6zm-72 5.2-.1 7.1-.5 25.7a1352 1352 0 0 1-4.2 77.9 477 477 0 0 1-11.2 76.3 67.3 67.3 0 0 1-47.4 47.5c-21 5.6-73.9 10.1-145.8 12.8a4543 4543 0 0 1-152.5 3.1h-28.6l-37.8-.3c-39.1-.5-78.2-1.4-114.7-2.8-71.9-2.8-124.9-7.2-145.8-12.8a67.5 67.5 0 0 1-47.4-47.5 477 477 0 0 1-11.2-76.3c-2.1-24.7-3.4-51.3-4.2-77.9-.3-9.3-.4-18-.5-25.7l-.1-7.1v-4.8l.1-7.1.5-25.7a1352 1352 0 0 1 4.2-77.9 477 477 0 0 1 11.2-76.3 67.3 67.3 0 0 1 47.4-47.5c21-5.6 73.9-10.1 145.8-12.8a4543 4543 0 0 1 152.5-3.1h28.6l37.8.3c39.1.5 78.2 1.4 114.7 2.8 71.9 2.8 124.9 7.2 145.8 12.8a67.5 67.5 0 0 1 47.4 47.5 477 477 0 0 1 11.2 76.3c2.1 24.7 3.4 51.3 4.2 77.9.3 9.3.4 18 .5 25.7l.1 7.1v4.8zM423 646l232-135-232-133z"/></svg>