<svg xmlns="http://www.w3.org/2000/svg" viewBox="0 0 324.1 324.1" style="enable-background:new 0 0 324.143 324.143" xml:space="preserve"><path d="M162 0A161.4 161.4 0 0 0 37 263a96.7 96.7 0 0 1-32.5 42 7.5 7.5 0 0 0 2 13.1 111.7 111.7 0 0 0 91.8-8.7 161.4 161.4 0 0 0 225-148.1C323.3 72.2 251 0 162.1 0zm0 307.5a145 145 0 0 1-61-13.4c-2.3-1-5-.9-7.1.5a96.6 96.6 0 0 1-69.1 12.9c12.5-12.2 22-27 27.8-43.6.8-2.5.3-5.3-1.4-7.3A146.2 146.2 0 1 1 162 307.5z"/><path d="M205.2 113.6H184v-6.9l.1-1.1h20.6c4.2 0 7.5-3.4 7.5-7.6V67c0-4-3.3-7.4-7.4-7.4l-28-.1c-33.5 0-45.5 24.4-45.5 45.3v8.8H121a7.5 7.5 0 0 0-7.5 7.5v36.2c0 4.1 3.4 7.5 7.5 7.5h10.6v82.7c0 4.2 3.4 7.5 7.5 7.5H175c4.2 0 7.5-3.3 7.5-7.5v-82.7H202c3.9 0 7.1-3 7.5-6.9l3.3-36a7.5 7.5 0 0 0-7.5-8.3zm-10.1 36.2h-20a7.5 7.5 0 0 0-7.5 7.5V240h-21.1v-82.7c0-4.2-3.4-7.5-7.5-7.5h-10.6v-21.2h10.4c4.2 0 7.5-3.3 7.5-7.5v-16.3c0-9.1 3-30.3 30.5-30.3h20.4v16h-12.7c-7.5 0-15.5 5.1-15.5 16.2v14.4c0 4.2 3.4 7.5 7.5 7.5H197l-2 21.2z"/></svg>