<svg width="40" height="40" viewBox="0 0 40 40" fill="none" xmlns="http://www.w3.org/2000/svg">
<path d="M39.472 0.195262C39.2113 -0.065413 38.79 -0.065413 38.5293 0.195262L36.0579 2.66668H20.5354L1.02137 22.3413C0.577353 22.7853 0.332678 23.3767 0.332678 24.0047C0.332678 24.6327 0.577353 25.2241 1.02137 25.6681L14.6658 39.3126C15.1238 39.7706 15.7245 39.9999 16.3265 39.9999C16.9312 39.9999 17.5359 39.7686 17.9993 39.3059L37.0006 19.7912V3.60938L39.472 1.13796C39.7327 0.877285 39.7327 0.455938 39.472 0.195262ZM35.6672 19.2499L17.0499 38.3699C16.6526 38.7672 16.0059 38.7672 15.6085 38.3699L1.96407 24.7254C1.56672 24.3281 1.56672 23.6814 1.96607 23.282L21.0914 4.00006H34.7245L31.5024 7.22216C30.975 6.87282 30.345 6.66681 29.667 6.66681C27.8289 6.66681 26.3335 8.16219 26.3335 10.0003C26.3335 11.8383 27.8289 13.3337 29.667 13.3337C31.505 13.3337 33.0004 11.8383 33.0004 10.0003C33.0004 9.32223 32.7944 8.69221 32.4451 8.16486L35.6672 4.94275V19.2499ZM31.6671 10.0003C31.6671 11.103 30.7697 12.0003 29.667 12.0003C28.5643 12.0003 27.6669 11.103 27.6669 10.0003C27.6669 8.89755 28.5643 8.00019 29.667 8.00019C29.975 8.00019 30.263 8.07619 30.5237 8.20086L29.1956 9.52891C28.935 9.78958 28.935 10.2109 29.1956 10.4716C29.3256 10.6016 29.4963 10.6669 29.667 10.6669C29.8377 10.6669 30.0083 10.6016 30.1383 10.4716L31.4664 9.14356C31.5917 9.40424 31.6671 9.69225 31.6671 10.0003Z" fill="black"/>
<path d="M28.1649 20.8547L21.094 27.9263C20.8334 28.1869 20.8334 28.6083 21.094 28.869C21.224 28.999 21.3947 29.0643 21.5654 29.0643C21.7361 29.0643 21.9067 28.999 22.0367 28.869L29.1076 21.7974C29.3683 21.5367 29.3683 21.1154 29.1076 20.8547C28.847 20.594 28.4256 20.5947 28.1649 20.8547Z" fill="black"/>
<path d="M30.5203 18.494C30.3997 18.62 30.327 18.7933 30.327 18.9673C30.327 19.1473 30.3997 19.32 30.5203 19.4406C30.6464 19.5667 30.8197 19.634 30.9937 19.634C31.167 19.634 31.3404 19.5667 31.4597 19.4406C31.5864 19.32 31.6604 19.1473 31.6604 18.9673C31.6604 18.7933 31.5871 18.62 31.4597 18.494C31.213 18.2473 30.7737 18.2473 30.5203 18.494Z" fill="black"/>
<path d="M24.8648 12.8404C25.1255 12.5798 25.1255 12.1584 24.8648 11.8977C24.6042 11.6371 24.1828 11.6371 23.9221 11.8977L16.8506 18.9693C16.5899 19.23 16.5899 19.6513 16.8506 19.912C16.9806 20.042 17.1512 20.1073 17.3219 20.1073C17.4926 20.1073 17.6633 20.042 17.7933 19.912L24.8648 12.8404Z" fill="black"/>
<path d="M22.5081 20.8547C22.6381 20.9847 22.8088 21.05 22.9794 21.05C23.1501 21.05 23.3208 20.9847 23.4508 20.8547L28.1649 16.1405C28.4256 15.8799 28.4256 15.4585 28.1649 15.1978C27.9043 14.9372 27.4829 14.9372 27.2222 15.1978L22.5081 19.912C22.2474 20.1727 22.2474 20.5947 22.5081 20.8547Z" fill="black"/>
<path d="M18.7366 23.6828L17.7939 24.6255C17.5333 24.8862 17.5333 25.3075 17.7939 25.5682C17.9239 25.6982 18.0946 25.7635 18.2653 25.7635C18.4359 25.7635 18.6066 25.6982 18.7366 25.5682L19.6793 24.6255C19.94 24.3648 19.94 23.9435 19.6793 23.6828C19.4186 23.4221 18.9966 23.4228 18.7366 23.6828Z" fill="black"/>
<path d="M11.6651 19.164C11.8357 19.164 12.0064 19.0986 12.1364 18.9686L19.2073 11.8977C19.468 11.6371 19.468 11.2157 19.2073 10.955C18.9466 10.6944 18.5253 10.6944 18.2646 10.955L11.1937 18.0259C10.933 18.2866 10.933 18.708 11.1937 18.9686C11.3237 19.0986 11.4944 19.164 11.6651 19.164Z" fill="black"/>
<path d="M21.0934 9.73366C21.2667 9.73366 21.4407 9.66699 21.5667 9.54032C21.6874 9.41431 21.7601 9.24764 21.7601 9.06697C21.7601 8.89363 21.6874 8.72029 21.5601 8.59362C21.3134 8.34695 20.8734 8.34695 20.62 8.60029C20.5 8.72096 20.4267 8.89363 20.4267 9.06697C20.4267 9.24031 20.5 9.41431 20.62 9.54032C20.7467 9.66699 20.92 9.73366 21.0934 9.73366Z" fill="black"/>
<path d="M14.9665 20.854C14.8398 20.98 14.7732 21.1467 14.7732 21.3274C14.7732 21.5074 14.8398 21.6741 14.9665 21.7934C15.0865 21.9201 15.2592 21.9941 15.4398 21.9941C15.6132 21.9941 15.7865 21.9207 15.9059 21.8007C16.0325 21.6741 16.1065 21.5007 16.1065 21.3274C16.1065 21.1534 16.0332 20.98 15.9059 20.854C15.6599 20.6074 15.2125 20.6074 14.9665 20.854Z" fill="black"/>
<path d="M21.5667 22.7401C21.6874 22.6201 21.7601 22.4474 21.7601 22.2668C21.7601 22.0934 21.6874 21.9201 21.5667 21.7934C21.3134 21.5467 20.8734 21.5467 20.62 21.7934C20.5 21.9201 20.4267 22.0934 20.4267 22.2668C20.4267 22.4474 20.5 22.6141 20.62 22.7401C20.7467 22.8668 20.92 22.9334 21.0934 22.9334C21.2667 22.9334 21.44 22.8674 21.5667 22.7401Z" fill="black"/>
<path d="M16.4345 31.7524C16.8446 31.133 17.0406 30.3917 16.9772 29.6377C16.9252 29.0083 16.6219 28.4396 16.1239 28.0356C15.6139 27.6229 14.9445 27.4336 14.2985 27.5149L12.4304 27.7483L9.86633 25.1842C10.609 24.8315 11.5231 24.9548 12.1371 25.5689C12.3977 25.8295 12.8191 25.8295 13.0798 25.5689C13.3404 25.3082 13.3404 24.8868 13.0798 24.6262C11.9417 23.4881 10.1783 23.3474 8.8843 24.2028L8.36495 23.6835C8.10427 23.4228 7.68292 23.4228 7.42225 23.6835C7.16157 23.9441 7.16157 24.3655 7.42225 24.6262L7.94293 25.1468C7.53358 25.7655 7.33758 26.5075 7.40091 27.2616C7.45292 27.8903 7.75626 28.4596 8.25361 28.863C8.76363 29.2756 9.42898 29.4656 10.0797 29.385L11.9477 29.1516L14.5052 31.7091C13.7645 32.0431 12.8318 31.9211 12.2411 31.3304C11.9804 31.0697 11.5591 31.0697 11.2984 31.3304C11.0377 31.5904 11.0377 32.0124 11.2984 32.2731C11.9271 32.9024 12.7644 33.2498 13.6551 33.2498C14.3191 33.2498 14.9525 33.0558 15.4932 32.6971L15.9079 33.1118C16.0379 33.2418 16.2085 33.3071 16.3792 33.3071C16.5499 33.3071 16.7206 33.2418 16.8506 33.1118C17.1112 32.8511 17.1112 32.4297 16.8506 32.1691L16.4345 31.7524ZM9.91433 28.0623C9.62232 28.0983 9.32165 28.0143 9.09364 27.8276C8.88096 27.6543 8.75096 27.4142 8.72896 27.1502C8.69962 26.7929 8.77563 26.4442 8.92563 26.1289L10.7537 27.9569L9.91433 28.0623ZM14.4638 28.8376C14.7525 28.7983 15.0545 28.8856 15.2832 29.0716C15.4965 29.245 15.6265 29.485 15.6485 29.749C15.6779 30.1063 15.6019 30.455 15.4512 30.7704L13.6238 28.943L14.4638 28.8376Z" fill="black"/>
</svg>
