<svg width="40" height="40" fill="none" xmlns="http://www.w3.org/2000/svg"><path d="M39.5.2a.7.7 0 0 0-1 0l-2.4 2.5H20.5L1 22.3a2.3 2.3 0 0 0 0 3.4l13.7 13.6a2.3 2.3 0 0 0 3.3 0l19-19.5V3.6l2.5-2.5c.2-.2.2-.6 0-.9Zm-3.8 19L17 38.4a1 1 0 0 1-1.4 0L2 24.7a1 1 0 0 1 0-1.4L21 4h13.7l-3.2 3.2c-.5-.3-1.2-.5-1.8-.5a3.3 3.3 0 1 0 2.7 1.5l3.3-3.3v14.3Zm-4-9.2a2 2 0 1 1-2-2c.3 0 .6 0 .8.2l-1.3 1.3a.7.7 0 1 0 1 1L31.4 9l.2.9Z" fill="#000"/><path d="m28.2 20.9-7.1 7a.7.7 0 1 0 1 1l7-7.1a.7.7 0 1 0-1-1Zm2.3-2.4-.2.5.2.4a.7.7 0 0 0 1.2-.4l-.2-.5a.7.7 0 0 0-1 0Zm-5.6-5.7a.7.7 0 1 0-1-.9l-7 7a.7.7 0 1 0 .9 1l7-7Zm-2.4 8.1a.7.7 0 0 0 1 0l4.7-4.8a.7.7 0 1 0-1-.9l-4.7 4.7c-.3.3-.3.7 0 1Zm-3.8 2.8-1 1a.7.7 0 1 0 1 .9l1-1a.7.7 0 1 0-1-1Zm-7-4.5.4-.2 7.1-7.1a.7.7 0 1 0-1-1l-7 7.1a.7.7 0 0 0 .5 1.2ZM21 9.7c.3 0 .4 0 .6-.2l.2-.4-.2-.5a.7.7 0 0 0-1 0l-.2.5.2.4c.1.2.3.2.5.2Zm-6 11.2c-.2 0-.2.2-.2.4s0 .4.2.5a.7.7 0 0 0 1 0l.1-.5c0-.1 0-.3-.2-.4a.7.7 0 0 0-1 0Zm6.6 1.8a.7.7 0 0 0 0-1 .7.7 0 0 0-1 0l-.2.6.2.4a.7.7 0 0 0 1 0Zm-5.2 9.1c.4-.7.6-1.4.6-2.2 0-.6-.4-1.2-.9-1.6-.5-.4-1.2-.6-1.8-.5l-1.9.2-2.5-2.5a2 2 0 0 1 2.2.4.7.7 0 1 0 1-1 3.3 3.3 0 0 0-4.2-.4l-.5-.5a.7.7 0 1 0-1 1l.5.4c-.4.7-.6 1.4-.5 2.2 0 .6.4 1.2.9 1.6.5.4 1.1.6 1.8.5l1.8-.2 2.6 2.5a2 2 0 0 1-2.3-.4.7.7 0 1 0-.9 1 3.3 3.3 0 0 0 4.2.4l.4.4a.7.7 0 0 0 1 0c.2-.2.2-.7 0-1l-.5-.3ZM10 28a1 1 0 0 1-.8-.3 1 1 0 0 1-.4-.6c0-.4 0-.8.2-1l1.9 1.8H10Zm4.6.7c.3 0 .6 0 .8.3.2.1.3.4.3.6l-.1 1-1.9-1.8h.9Z" fill="#000"/></svg>