<svg width="11" height="10" viewBox="0 0 11 10" fill="none" xmlns="http://www.w3.org/2000/svg">
<path d="M10.1998 0.0486323C10.1335 -0.0165363 10.0264 -0.0165363 9.96014 0.0486323L9.33184 0.666484H5.38559L0.424592 5.58513C0.311711 5.69613 0.249508 5.84397 0.249508 6.00097C0.249508 6.15798 0.311711 6.30581 0.424592 6.41682L3.89339 9.82792C4.00983 9.94242 4.16254 9.99976 4.31559 9.99976C4.46932 9.99976 4.62305 9.94192 4.74084 9.82625L9.5715 4.94761V0.902157L10.1998 0.284306C10.2661 0.219137 10.2661 0.113801 10.1998 0.0486323ZM9.23252 4.81227L4.49949 9.59224C4.39847 9.69158 4.23407 9.69158 4.13305 9.59224L0.664252 6.18114C0.563235 6.08181 0.563235 5.92014 0.66476 5.8203L5.52694 0.999827H8.99286L8.17371 1.80535C8.03964 1.71801 7.87948 1.66651 7.7071 1.66651C7.23982 1.66651 6.85965 2.04036 6.85965 2.49987C6.85965 2.95938 7.23982 3.33323 7.7071 3.33323C8.17439 3.33323 8.55456 2.95938 8.55456 2.49987C8.55456 2.33037 8.50218 2.17286 8.41337 2.04102L9.23252 1.2355V4.81227ZM8.21558 2.49987C8.21558 2.77554 7.98744 2.99988 7.7071 2.99988C7.42677 2.99988 7.19863 2.77554 7.19863 2.49987C7.19863 2.2242 7.42677 1.99986 7.7071 1.99986C7.78541 1.99986 7.85863 2.01886 7.9249 2.05002L7.58727 2.38203C7.521 2.4472 7.521 2.55254 7.58727 2.61771C7.62032 2.65021 7.66371 2.66654 7.7071 2.66654C7.75049 2.66654 7.79388 2.65021 7.82693 2.61771L8.16456 2.2857C8.19642 2.35087 8.21558 2.42287 8.21558 2.49987Z" fill="black"/>
<path d="M7.32524 5.21349L5.52762 6.98137C5.46135 7.04654 5.46135 7.15188 5.52762 7.21704C5.56067 7.24955 5.60406 7.26588 5.64745 7.26588C5.69084 7.26588 5.73423 7.24955 5.76728 7.21704L7.5649 5.44916C7.63117 5.38399 7.63117 5.27866 7.5649 5.21349C7.49863 5.14832 7.39151 5.14848 7.32524 5.21349Z" fill="black"/>
<path d="M7.92405 4.62331C7.89337 4.65481 7.8749 4.69814 7.8749 4.74165C7.8749 4.78665 7.89337 4.82981 7.92405 4.85998C7.95609 4.89148 8.00015 4.90832 8.04439 4.90832C8.08846 4.90832 8.13253 4.89148 8.16286 4.85998C8.19507 4.82981 8.21388 4.78665 8.21388 4.74165C8.21388 4.69814 8.19524 4.65481 8.16286 4.62331C8.10015 4.56164 7.98846 4.56164 7.92405 4.62331Z" fill="black"/>
<path d="M6.48626 3.20993C6.55253 3.14477 6.55253 3.03943 6.48626 2.97426C6.41999 2.90909 6.31287 2.90909 6.2466 2.97426L4.44881 4.74215C4.38254 4.80731 4.38254 4.91265 4.44881 4.97782C4.48186 5.01032 4.52525 5.02665 4.56864 5.02665C4.61203 5.02665 4.65542 5.01032 4.68847 4.97782L6.48626 3.20993Z" fill="black"/>
<path d="M5.88711 5.21351C5.92016 5.24601 5.96355 5.26235 6.00694 5.26235C6.05033 5.26235 6.09372 5.24601 6.12677 5.21351L7.32524 4.03498C7.39151 3.96981 7.39151 3.86447 7.32524 3.7993C7.25897 3.73414 7.15185 3.73414 7.08558 3.7993L5.88711 4.97784C5.82084 5.04301 5.82084 5.14851 5.88711 5.21351Z" fill="black"/>
<path d="M4.9283 5.92052L4.68864 6.15619C4.62237 6.22136 4.62237 6.3267 4.68864 6.39187C4.72169 6.42437 4.76508 6.4407 4.80847 6.4407C4.85186 6.4407 4.89525 6.42437 4.9283 6.39187L5.16796 6.15619C5.23423 6.09102 5.23423 5.98569 5.16796 5.92052C5.10169 5.85535 4.9944 5.85552 4.9283 5.92052Z" fill="black"/>
<path d="M3.13051 4.7908C3.1739 4.7908 3.21729 4.77447 3.25034 4.74197L5.04796 2.97425C5.11423 2.90908 5.11423 2.80374 5.04796 2.73857C4.98169 2.67341 4.87457 2.67341 4.8083 2.73857L3.01068 4.50629C2.94441 4.57146 2.94441 4.6768 3.01068 4.74197C3.04373 4.77447 3.08712 4.7908 3.13051 4.7908Z" fill="black"/>
<path d="M5.52745 2.43323C5.57152 2.43323 5.61576 2.41656 5.64779 2.38489C5.67847 2.35339 5.69694 2.31172 5.69694 2.26655C5.69694 2.22322 5.67847 2.17989 5.64609 2.14822C5.58338 2.08655 5.47152 2.08655 5.40711 2.14988C5.3766 2.18005 5.35796 2.22322 5.35796 2.26655C5.35796 2.30989 5.3766 2.35339 5.40711 2.38489C5.43932 2.41656 5.48338 2.43323 5.52745 2.43323Z" fill="black"/>
<path d="M3.96983 5.2133C3.93763 5.24481 3.92068 5.28647 3.92068 5.33164C3.92068 5.37664 3.93763 5.41831 3.96983 5.44814C4.00034 5.47981 4.04424 5.49831 4.09017 5.49831C4.13424 5.49831 4.17831 5.47998 4.20864 5.44998C4.24085 5.41831 4.25966 5.37498 4.25966 5.33164C4.25966 5.28814 4.24102 5.24481 4.20864 5.2133C4.1461 5.15164 4.03237 5.15164 3.96983 5.2133Z" fill="black"/>
<path d="M5.64779 5.68484C5.67847 5.65484 5.69694 5.61167 5.69694 5.5665C5.69694 5.52317 5.67847 5.47984 5.64779 5.44817C5.58338 5.3865 5.47152 5.3865 5.40711 5.44817C5.3766 5.47984 5.35796 5.52317 5.35796 5.5665C5.35796 5.61167 5.3766 5.65334 5.40711 5.68484C5.43932 5.71651 5.48338 5.73318 5.52745 5.73318C5.57152 5.73318 5.61559 5.71668 5.64779 5.68484Z" fill="black"/>
<path d="M4.34305 7.9379C4.44729 7.78306 4.49712 7.59772 4.48102 7.40922C4.4678 7.25188 4.39068 7.10971 4.26407 7.0087C4.13441 6.90553 3.96424 6.8582 3.8 6.87853L3.32509 6.93687L2.67323 6.29585C2.86204 6.20768 3.09441 6.23852 3.25051 6.39202C3.31678 6.45719 3.4239 6.45719 3.49017 6.39202C3.55644 6.32685 3.55644 6.22151 3.49017 6.15635C3.20085 5.87184 2.75255 5.83667 2.42357 6.05051L2.29153 5.92067C2.22526 5.8555 2.11814 5.8555 2.05187 5.92067C1.9856 5.98584 1.9856 6.09118 2.05187 6.15635L2.18425 6.28652C2.08018 6.44119 2.03035 6.62669 2.04645 6.8152C2.05967 6.97237 2.13679 7.11471 2.26323 7.21554C2.39289 7.31871 2.56204 7.36621 2.72746 7.34605L3.20238 7.28771L3.85254 7.92706C3.66424 8.01057 3.42712 7.98007 3.27695 7.83239C3.21068 7.76723 3.10356 7.76723 3.03729 7.83239C2.97102 7.8974 2.97102 8.0029 3.03729 8.06807C3.19712 8.22541 3.41 8.31224 3.63644 8.31224C3.80526 8.31224 3.96627 8.26374 4.10373 8.17407L4.20915 8.27774C4.2422 8.31024 4.28559 8.32658 4.32898 8.32658C4.37237 8.32658 4.41576 8.31024 4.44881 8.27774C4.51508 8.21257 4.51508 8.10724 4.44881 8.04207L4.34305 7.9379ZM2.68543 7.01537C2.61119 7.02437 2.53475 7.00337 2.47679 6.9567C2.42272 6.91337 2.38967 6.85337 2.38408 6.78736C2.37662 6.69803 2.39594 6.61086 2.43408 6.53202L2.89882 6.98904L2.68543 7.01537ZM3.84204 7.20921C3.91543 7.19938 3.9922 7.22121 4.05034 7.26771C4.10458 7.31105 4.13763 7.37105 4.14322 7.43705C4.15068 7.52639 4.13136 7.61355 4.09305 7.69239L3.62848 7.23554L3.84204 7.20921Z" fill="black"/>
</svg>
