<?xml version="1.0" encoding="iso-8859-1"?>
<!-- Generator: Adobe Illustrator 19.0.0, SVG Export Plug-In . SVG Version: 6.00 Build 0)  -->
<svg version="1.1" id="Layer_1" xmlns="http://www.w3.org/2000/svg" xmlns:xlink="http://www.w3.org/1999/xlink" x="0px" y="0px"
	 viewBox="0 0 512 512" style="enable-background:new 0 0 512 512;" xml:space="preserve">
<g>
	<g>
		<path d="M477.166,0H34.834C20.504,0,8.847,11.658,8.847,25.987v318.479c0,14.329,11.658,25.987,25.987,25.987h133.253v44.786
			c0,53.354,43.406,96.76,96.76,96.76c53.354,0,96.76-43.406,96.76-96.76v-44.786h115.559c14.329,0,25.987-11.658,25.987-25.987
			V25.987C503.153,11.658,491.496,0,477.166,0z M25.434,96.207h71.879v31.516c0,11.89,9.674,21.564,21.564,21.564
			c10.57,0,19.387-7.643,21.216-17.693h9.747c0.305,0,0.553,0.248,0.553,0.553v10.365c0,2.511-0.978,4.871-2.753,6.647
			l-27.774,27.774h-14.259c-9.452,0-17.14,7.689-17.14,17.14v3.479l-1.121-0.187c-6.684-1.114-12.167-5.799-14.309-12.228
			l-17.454-52.363c-3.543-10.626-13.45-17.767-24.653-17.767h-5.494V96.207z M168.087,353.866H34.834c-5.183,0-9.4-4.217-9.4-9.4
			V131.594h5.494c4.053,0,7.636,2.583,8.917,6.427L57.3,190.383c4.091,12.273,14.559,21.218,27.32,23.344l30.387,5.065V256
			c0,4.58,3.713,8.294,8.294,8.294c5.183,0,9.4,4.217,9.4,9.4v53.08c0,3.655,2.393,6.878,5.891,7.938
			c0.794,0.24,1.603,0.356,2.403,0.356c2.721,0,5.335-1.344,6.901-3.693l20.192-30.289V353.866z M131.594,249.063V220.06h7.441
			l29.051,14.525v36.596l-18.799,28.199v-25.687C149.287,262.262,141.869,252.532,131.594,249.063z M345.019,415.24
			c0,44.208-35.965,80.173-80.173,80.173c-44.208,0-80.173-35.965-80.173-80.173V273.668c0-0.01,0-0.021,0-0.031v-66.294
			c0-3.898,1.659-7.636,4.553-10.254c2.572-2.327,5.82-3.569,9.268-3.569c0.482,0,0.968,0.024,1.456,0.073
			c6.936,0.693,12.369,7.287,12.369,15.011v122.592c0,4.58,3.713,8.294,8.294,8.294c4.58,0,8.294-3.713,8.294-8.294
			c0-3.898,1.659-7.636,4.553-10.254c2.932-2.652,6.737-3.898,10.724-3.496c6.936,0.693,12.369,7.287,12.369,15.011v7.586
			c0,4.58,3.713,8.294,8.294,8.294c4.58,0,8.294-3.713,8.294-8.294c0-3.898,1.659-7.636,4.553-10.254
			c2.932-2.653,6.738-3.897,10.724-3.496c6.936,0.693,12.369,7.287,12.369,15.011v7.586c0,4.58,3.713,8.294,8.294,8.294
			c4.58,0,8.294-3.713,8.294-8.294c0-3.898,1.659-7.636,4.553-10.254c2.932-2.652,6.736-3.896,10.724-3.496
			c6.936,0.693,12.369,7.287,12.369,15.011V415.24z M486.566,344.466c0,5.183-4.216,9.4-9.4,9.4H361.607v-3.716
			c0-16.14-11.993-29.982-27.303-31.516c-7.713-0.77-15.414,1.418-21.511,6.046c-4.857-8.15-13.139-13.932-22.723-14.892
			c-7.714-0.772-15.414,1.418-21.511,6.046c-4.857-8.15-13.14-13.932-22.723-14.892c-5.886-0.588-11.765,0.546-16.93,3.175v-66.362
			h9.4c5.183,0,9.4,4.217,9.4,9.4v35.387c0,4.58,3.713,8.294,8.294,8.294h8.847c19.207,0,34.834-15.626,34.834-34.834v-15.396
			l22.943-38.236h13.55v18.246c0,3.355,2.02,6.378,5.12,7.662c3.099,1.284,6.667,0.575,9.038-1.798l20.676-20.676l11.829,11.829
			c1.757,1.757,4.207,2.631,6.681,2.389c2.473-0.244,4.705-1.586,6.083-3.653l17.693-26.54c0.908-1.362,1.393-2.964,1.393-4.6
			c0-5.183,4.216-9.4,9.4-9.4c14.329,0,25.987-11.658,25.987-25.987v-8.847c0-0.305,0.248-0.553,0.553-0.553h13.121l-2.845,5.691
			c-2.049,4.097-0.388,9.079,3.709,11.127c1.191,0.596,2.456,0.877,3.702,0.877c3.042,0,5.971-1.681,7.425-4.586l6.554-13.109h4.274
			V344.466z M486.566,123.852h-35.94v0.001c-9.452,0-17.14,7.689-17.14,17.14v8.847c0,5.183-4.217,9.4-9.4,9.4
			c-13.409,0-24.479,10.21-25.845,23.263l-10.829,16.245l-10.54-10.54c-3.239-3.239-8.491-3.239-11.728,0l-12.383,12.383v-6.518
			c0-4.58-3.713-8.294-8.294-8.294h-26.54c-2.913,0-5.613,1.528-7.112,4.026l-26.54,44.233c-0.773,1.289-1.182,2.765-1.182,4.267
			V256c0,10.061-8.185,18.246-18.246,18.246h-0.553v-27.093c0-14.329-11.658-25.987-25.987-25.987h-9.4v-27.093
			c0-0.305,0.248-0.553,0.553-0.553h53.08c4.58,0,8.294-3.713,8.294-8.294v-17.693c0-9.452-7.689-17.14-17.14-17.14h-18.246v-0.553
			c0-5.183,4.217-9.4,9.4-9.4h8.847c4.58,0,8.294-3.713,8.294-8.294V110.53l91.135-49.709h7.284v0.553
			c0,9.452,7.689,17.14,17.14,17.14h22.876c0.147,0,0.286,0.057,0.391,0.161l12.51,12.51c3.238,3.238,7.542,5.021,12.12,5.021
			h41.121V123.852z M237.754,176.933v-0.553c0-5.183,4.217-9.4,9.4-9.4h26.54c0.305,0,0.553,0.248,0.553,0.553v9.4H237.754z
			 M486.566,79.62h-41.123c-0.147,0-0.286-0.057-0.391-0.161l-12.51-12.511c-3.238-3.238-7.542-5.02-12.12-5.02h-22.875
			c-0.305,0-0.553-0.248-0.553-0.553v-8.847c0-4.58-3.713-8.294-8.294-8.294h-17.693c-1.388,0-2.754,0.348-3.971,1.013
			l-88.831,48.453c-1.42-1.764-3.198-3.26-5.269-4.368c-5.582-2.988-12.326-2.663-17.596,0.85l-12.786,8.525
			c-3.812,2.54-4.841,7.69-2.3,11.501c2.541,3.812,7.692,4.842,11.501,2.3l12.787-8.524c0.116-0.077,0.276-0.185,0.567-0.028
			c0.292,0.156,0.292,0.348,0.292,0.488v1.152c0,0.021,0,0.041,0,0.061v18.196h-0.553c-14.329,0-25.987,11.658-25.987,25.987v1.918
			c-10.273,3.47-17.693,13.193-17.693,24.622v2.696c-1.828,1.015-3.446,2.361-4.787,3.946c-4.235-3.249-9.29-5.385-14.775-5.934
			c-8.581-0.855-17.148,1.948-23.507,7.701c-6.362,5.757-10.011,13.978-10.011,22.553v8.697l-23.384-11.692
			c-1.152-0.576-2.421-0.876-3.709-0.876h-17.007l-18.933-3.155v-6.244c0-0.305,0.248-0.553,0.553-0.553H123.3
			c2.199,0,4.309-0.874,5.864-2.43l30.204-30.204c4.909-4.908,7.611-11.434,7.611-18.376v-10.365c0-9.452-7.689-17.14-17.14-17.14
			h-17.693c-4.58,0-8.294,3.713-8.294,8.294v4.423c0,2.744-2.233,4.976-4.976,4.976c-2.744,0-4.976-2.233-4.976-4.976V79.067
			c0-4.58-3.713-8.294-8.294-8.294c-4.58,0-8.293,3.713-8.293,8.294v0.553H25.434V25.987c0-5.183,4.216-9.4,9.4-9.4h442.333
			c5.183,0,9.4,4.217,9.4,9.4V79.62z"/>
	</g>
</g>
<g>
	<g>
		<path d="M220.613,123.853c-4.58,0-8.294,3.713-8.294,8.294v8.847c0,4.58,3.713,8.294,8.294,8.294c4.58,0,8.294-3.713,8.294-8.294
			v-8.847C228.907,127.567,225.194,123.853,220.613,123.853z"/>
	</g>
</g>
<g>
	<g>
		<path d="M79.067,53.08H61.374c-4.58,0-8.294,3.713-8.294,8.294c0,4.58,3.713,8.294,8.294,8.294h17.693
			c4.58,0,8.294-3.713,8.294-8.294C87.361,56.793,83.647,53.08,79.067,53.08z"/>
	</g>
</g>
<g>
	<g>
		<path d="M317.927,247.706c-4.58,0-8.294,3.713-8.294,8.294v8.847c0,4.58,3.713,8.294,8.294,8.294c4.58,0,8.294-3.713,8.294-8.294
			V256C326.22,251.42,322.507,247.706,317.927,247.706z"/>
	</g>
</g>
<g>
	<g>
		<path d="M474.184,267.829l-26.54-26.54c-1.555-1.556-3.665-2.43-5.864-2.43h-8.847c-1.637,0-3.238,0.484-4.6,1.393l-26.54,17.693
			c-2.307,1.538-3.693,4.127-3.693,6.9v17.693c0,4.58,3.713,8.294,8.294,8.294h26.54c0.305,0,0.553,0.248,0.553,0.553
			c0,4.58,3.713,8.294,8.294,8.294h26.54c4.58,0,8.294-3.713,8.294-8.294v-17.693C476.613,271.494,475.74,269.384,474.184,267.829z
			 M460.026,283.093H447.93c-2.926-5.271-8.551-8.847-14.997-8.847h-18.246v-4.961l20.758-13.838h2.901l21.681,21.681V283.093z"/>
	</g>
</g>
<g>
	<g>
		<path d="M397.546,230.013h-6.888l-15.943-7.971c-4.097-2.049-9.078-0.388-11.127,3.709s-0.388,9.079,3.709,11.127l17.693,8.847
			c1.152,0.576,2.421,0.876,3.709,0.876h8.847c4.58,0,8.294-3.713,8.294-8.294C405.84,233.726,402.127,230.013,397.546,230.013z"/>
	</g>
</g>
<g>
	<g>
		<path d="M424.086,203.473c-4.58,0-8.294,3.713-8.294,8.294v8.847c0,4.58,3.713,8.294,8.294,8.294c4.58,0,8.294-3.713,8.294-8.294
			v-8.847C432.38,207.186,428.667,203.473,424.086,203.473z"/>
	</g>
</g>
<g>
	<g>
		<path d="M323.791,46.663c-3.239-3.239-8.491-3.239-11.728,0l-8.847,8.847c-3.239,3.239-3.239,8.491,0,11.728
			c1.619,1.62,3.742,2.43,5.864,2.43c2.122,0,4.245-0.809,5.864-2.43l8.847-8.847C327.03,55.152,327.03,49.901,323.791,46.663z"/>
	</g>
</g>
<g>
	<g>
		<path d="M146.858,82.049l-8.847-8.847c-3.239-3.239-8.491-3.239-11.728,0c-3.239,3.239-3.239,8.491,0,11.728l8.847,8.847
			c1.619,1.62,3.742,2.43,5.864,2.43c2.122,0,4.245-0.809,5.864-2.43C150.097,90.539,150.097,85.287,146.858,82.049z"/>
	</g>
</g>
<g>
	<g>
		<circle cx="105.607" cy="52.527" r="8.294"/>
	</g>
</g>
<g>
</g>
<g>
</g>
<g>
</g>
<g>
</g>
<g>
</g>
<g>
</g>
<g>
</g>
<g>
</g>
<g>
</g>
<g>
</g>
<g>
</g>
<g>
</g>
<g>
</g>
<g>
</g>
<g>
</g>
</svg>
