<svg width="58" height="60" viewBox="0 0 58 60" fill="none" xmlns="http://www.w3.org/2000/svg">
<path d="M54.9179 0H3.08209C1.4028 0 0.0367432 1.36617 0.0367432 3.04535V40.3671C0.0367432 42.0463 1.40291 43.4125 3.08209 43.4125H18.6977V48.6608C18.6977 54.9132 23.7843 59.9999 30.0367 59.9999C36.2892 59.9999 41.3758 54.9132 41.3758 48.6608V43.4125H54.9179C56.5971 43.4125 57.9632 42.0463 57.9632 40.3671V3.04535C57.9632 1.36617 56.5972 0 54.9179 0ZM1.98053 11.2743H10.4039V14.9675C10.4039 16.3609 11.5375 17.4946 12.9309 17.4946C14.1696 17.4946 15.2028 16.5989 15.4171 15.4212H16.5594C16.5951 15.4212 16.6242 15.4502 16.6242 15.486V16.7006C16.6242 16.9949 16.5096 17.2714 16.3015 17.4796L13.0468 20.7343H11.3758C10.2681 20.7343 9.36721 21.6354 9.36721 22.7429V23.1506L9.23584 23.1287C8.45256 22.9982 7.81002 22.4491 7.55901 21.6957L5.51362 15.5595C5.09842 14.3142 3.93745 13.4774 2.62459 13.4774H1.98077V11.2743H1.98053ZM18.6977 41.4687H3.08209C2.47471 41.4687 1.98053 40.9745 1.98053 40.3671V15.4212H2.62436C3.09932 15.4212 3.5192 15.7239 3.66932 16.1743L5.71483 22.3105C6.19424 23.7487 7.42096 24.797 8.91639 25.0461L12.4774 25.6397V30C12.4774 30.5367 12.9125 30.972 13.4493 30.972C14.0567 30.972 14.5509 31.4661 14.5509 32.0735V38.2938C14.5509 38.7221 14.8313 39.0998 15.2412 39.2241C15.3343 39.2522 15.4291 39.2658 15.5228 39.2658C15.8417 39.2658 16.148 39.1083 16.3315 38.833L18.6978 35.2835V41.4687H18.6977ZM14.4212 29.1871V25.7883H15.2931L18.6976 27.4904V31.779L16.4946 35.0836V32.0734C16.4946 30.7338 15.6253 29.5936 14.4212 29.1871ZM39.4319 48.6609C39.4319 53.8416 35.2173 58.0562 30.0366 58.0562C24.856 58.0562 20.6414 53.8416 20.6414 48.6609V32.0705C20.6414 32.0693 20.6414 32.068 20.6414 32.0668V24.298C20.6414 23.8412 20.8358 23.4032 21.1749 23.0964C21.4763 22.8237 21.8569 22.6781 22.261 22.6781C22.3175 22.6781 22.3744 22.6809 22.4316 22.6867C23.2444 22.7679 23.8811 23.5406 23.8811 24.4458V38.812C23.8811 39.3488 24.3162 39.784 24.8531 39.784C25.3898 39.784 25.825 39.3489 25.825 38.812C25.825 38.3552 26.0194 37.9172 26.3586 37.6104C26.7022 37.2996 27.1481 37.1536 27.6153 37.2007C28.4281 37.2819 29.0648 38.0546 29.0648 38.9598V39.8488C29.0648 40.3855 29.4999 40.8207 30.0367 40.8207C30.5735 40.8207 31.0087 40.3856 31.0087 39.8488C31.0087 39.392 31.2031 38.9539 31.5422 38.6471C31.8858 38.3363 32.3319 38.1905 32.799 38.2375C33.6118 38.3187 34.2485 39.0914 34.2485 39.9966V40.8855C34.2485 41.4223 34.6836 41.8575 35.2204 41.8575C35.7571 41.8575 36.1924 41.4224 36.1924 40.8855C36.1924 40.4288 36.3868 39.9907 36.7259 39.6839C37.0695 39.3731 37.5153 39.2273 37.9826 39.2742C38.7955 39.3554 39.4321 40.1282 39.4321 41.0333V48.6609H39.4319ZM56.0194 40.3671C56.0194 40.9745 55.5254 41.4687 54.9179 41.4687H41.3758V41.0332C41.3758 39.1418 39.9704 37.5197 38.1762 37.3399C37.2724 37.2497 36.3699 37.5061 35.6554 38.0484C35.0862 37.0934 34.1157 36.4158 32.9926 36.3033C32.0886 36.2128 31.1862 36.4695 30.4717 37.0118C29.9026 36.0567 28.9319 35.3791 27.8089 35.2666C27.1191 35.1977 26.4302 35.3306 25.8249 35.6387V27.8619H26.9265C27.5339 27.8619 28.028 28.3561 28.028 28.9635V33.1104C28.028 33.6471 28.4631 34.0823 29 34.0823H30.0367C32.2876 34.0823 34.1189 32.2512 34.1189 30.0002V28.196L36.8075 23.7152H38.3954V25.8534C38.3954 26.2466 38.6321 26.6009 38.9954 26.7513C39.3585 26.9018 39.7767 26.8187 40.0545 26.5406L42.4775 24.1177L43.8637 25.5039C44.0696 25.7098 44.3567 25.8122 44.6466 25.7838C44.9364 25.7552 45.198 25.598 45.3595 25.3557L47.4329 22.2456C47.5393 22.086 47.5961 21.8982 47.5961 21.7065C47.5961 21.0991 48.0902 20.605 48.6977 20.605C50.3769 20.605 51.743 19.2388 51.743 17.5596V16.5229C51.743 16.4871 51.7721 16.458 51.8078 16.458H53.3455L53.0121 17.125C52.7719 17.6051 52.9666 18.1889 53.4467 18.4289C53.5863 18.4987 53.7345 18.5317 53.8805 18.5317C54.237 18.5317 54.5803 18.3347 54.7507 17.9943L55.5187 16.458H56.0196V40.3671H56.0194ZM56.0194 14.5139H51.8077V14.514C50.7001 14.514 49.7991 15.4151 49.7991 16.5226V17.5594C49.7991 18.1668 49.3049 18.6609 48.6976 18.6609C47.1262 18.6609 45.8289 19.8574 45.6689 21.3871L44.3998 23.2908L43.1647 22.0556C42.7851 21.6761 42.1696 21.6761 41.7903 22.0556L40.3392 23.5068V22.7429C40.3392 22.2062 39.904 21.771 39.3672 21.771H36.2571C35.9157 21.771 35.5993 21.95 35.4236 22.2428L32.3135 27.4263C32.2229 27.5774 32.1749 27.7504 32.1749 27.9264V30C32.1749 31.179 31.2158 32.1382 30.0367 32.1382H29.9719V28.9632C29.9719 27.2841 28.6058 25.9179 26.9266 25.9179H25.825V22.7429C25.825 22.7072 25.8541 22.6781 25.8898 22.6781H32.1101C32.6469 22.6781 33.0821 22.243 33.0821 21.7062V19.6328C33.0821 18.5251 32.181 17.6242 31.0735 17.6242H28.9353V17.5594C28.9353 16.952 29.4295 16.4578 30.0369 16.4578H31.0736C31.6103 16.4578 32.0456 16.0227 32.0456 15.4859V12.9527L42.7255 7.12746H43.579V7.19227C43.579 8.29992 44.4801 9.20086 45.5876 9.20086H48.2684C48.2857 9.20086 48.3019 9.20754 48.3142 9.21973L49.7803 10.6857C50.1597 11.0652 50.6641 11.2741 51.2006 11.2741H56.0194V14.5139V14.5139ZM26.8618 20.7343V20.6695C26.8618 20.0621 27.356 19.568 27.9633 19.568H31.0735C31.1092 19.568 31.1383 19.597 31.1383 19.6328V20.7343H26.8618ZM56.0194 9.33047H51.2003C51.1831 9.33047 51.1668 9.32379 51.1545 9.3116L49.6885 7.84547C49.309 7.46602 48.8047 7.25719 48.2682 7.25719H45.5875C45.5518 7.25719 45.5227 7.22813 45.5227 7.19238V6.15562C45.5227 5.61891 45.0876 5.18367 44.5508 5.18367H42.4774C42.3147 5.18367 42.1546 5.22445 42.012 5.30238L31.6021 10.9805C31.4357 10.7737 31.2274 10.5984 30.9847 10.4686C30.3305 10.1184 29.5402 10.1565 28.9226 10.5682L27.4243 11.5672C26.9776 11.8649 26.857 12.4684 27.1548 12.915C27.4525 13.3617 28.0562 13.4824 28.5025 13.1845L30.001 12.1856C30.0146 12.1766 30.0333 12.1639 30.0674 12.1823C30.1017 12.2006 30.1017 12.2231 30.1017 12.2395V12.3745C30.1017 12.377 30.1017 12.3793 30.1017 12.3817V14.514H30.0369C28.3577 14.514 26.9915 15.8802 26.9915 17.5594V17.7841C25.7876 18.1908 24.9181 19.3302 24.9181 20.6695V20.9855C24.7039 21.1044 24.5143 21.2621 24.3571 21.4479C23.8608 21.0671 23.2685 20.8168 22.6257 20.7525C21.6201 20.6523 20.6162 20.9808 19.871 21.655C19.1254 22.3296 18.6978 23.293 18.6978 24.2979V25.3171L15.9575 23.9469C15.8225 23.8794 15.6738 23.8443 15.5228 23.8443H13.5298L11.3111 23.4745V22.7428C11.3111 22.7071 11.3402 22.678 11.3759 22.678H13.4492C13.7069 22.678 13.9542 22.5756 14.1364 22.3932L17.6759 18.8537C18.2512 18.2786 18.5678 17.5138 18.5678 16.7003V15.4856C18.5678 14.378 17.6668 13.477 16.5592 13.477H14.4858C13.9491 13.477 13.5139 13.9121 13.5139 14.449V14.9673C13.5139 15.2889 13.2522 15.5504 12.9308 15.5504C12.6092 15.5504 12.3476 15.2888 12.3476 14.9673V9.26566C12.3476 8.72895 11.9125 8.29371 11.3757 8.29371C10.839 8.29371 10.4039 8.72883 10.4039 9.26566V9.33047H1.98053V3.04535C1.98053 2.43797 2.47459 1.94379 3.08209 1.94379H54.918C55.5254 1.94379 56.0196 2.43797 56.0196 3.04535V9.33047H56.0194Z" fill="black"/>
</svg>
