<svg width="40" height="31" viewBox="0 0 40 31" fill="none" xmlns="http://www.w3.org/2000/svg">
<path d="M20.3171 17.5373V27.7819H23.4798C23.5353 27.7685 23.5782 27.7215 23.5893 27.6644C23.783 26.4971 24.7436 25.6087 25.9042 25.6087C27.0647 25.6087 28.0253 26.4971 28.2174 27.6644C28.2301 27.7382 28.3444 27.7819 28.4143 27.7819H30.002V17.5373H20.3171ZM21.2697 7.52608V0.910726H17.7768V4.17222L13.7727 0.301086L0.321869 13.0447L2.3668 15.4833L4.44031 13.5016V30.3011H6.9806V25.9345H8.56828V27.2781H9.52088V25.9345H11.1086V30.3011H12.5375V25.9345H14.1252V27.2781H15.0778V25.9345H16.6654V30.3011H23.0162V28.7896H19.3645V16.5296H23.0162V13.6242L25.0198 15.6059L27.0822 13.2278L21.2697 7.52608ZM16.6654 24.423H12.5375V20.0564H14.1252V21.4H15.0778V20.0564H16.6654V24.423ZM40.1631 26.4384H39.8456V24.591C39.8456 23.9948 39.4629 23.4153 38.893 23.4153H36.3527C36.3146 23.4153 36.1971 23.3515 36.1717 23.3247L33.4028 20.1656C33.2757 20.0296 33.0455 19.8952 32.8598 19.8885H30.637V27.7819H34.6062C34.6761 27.7819 34.7174 27.7315 34.7301 27.6644C34.9222 26.4971 35.8843 25.6087 37.0433 25.6087C38.2039 25.6087 39.166 26.4971 39.3581 27.6644C39.3708 27.7382 39.4582 27.7819 39.528 27.7819H39.6868C40.052 27.7819 40.3219 27.4897 40.3219 27.1101V26.6063C40.3219 26.5324 40.2393 26.4384 40.1631 26.4384ZM34.8841 23.4674H31.496C31.4182 23.4674 31.3547 23.3986 31.3547 23.3179V20.9046C31.3547 20.8223 31.4182 20.7551 31.496 20.7551H32.8201C32.8582 20.7551 32.8963 20.7753 32.9296 20.8021L34.9936 23.2088C35.0698 23.3112 35.0063 23.4674 34.8841 23.4674ZM37.0433 26.2469C36.0701 26.2469 35.281 27.0816 35.281 28.1111C35.281 29.1423 36.0701 29.9753 37.0433 29.9753C38.0181 29.9753 38.8072 29.1423 38.8072 28.1111C38.8072 27.0816 38.0181 26.2469 37.0433 26.2469ZM37.0433 28.8249C36.6734 28.8249 36.3685 28.5024 36.3685 28.1111C36.3685 27.7198 36.6734 27.3973 37.0433 27.3973C37.4148 27.3973 37.7197 27.7198 37.7197 28.1111C37.7197 28.5024 37.4148 28.8249 37.0433 28.8249ZM25.9042 26.2469C24.9293 26.2469 24.1418 27.0816 24.1418 28.1111C24.1418 29.1423 24.9293 29.9753 25.9042 29.9753C26.879 29.9753 27.6665 29.1423 27.6665 28.1111C27.6665 27.0816 26.879 26.2469 25.9042 26.2469ZM25.9042 28.8249C25.5342 28.8249 25.2294 28.5024 25.2294 28.1111C25.2294 27.7198 25.5342 27.3973 25.9042 27.3973C26.2741 27.3973 26.5789 27.7198 26.5789 28.1111C26.5789 28.5024 26.2741 28.8249 25.9042 28.8249Z" fill="black"/>
</svg>
