<svg width="70" height="50" fill="none" xmlns="http://www.w3.org/2000/svg"><path d="M35 28.6v16.7h5.4c.1 0 .2 0 .2-.2a4 4 0 0 1 8 0c0 .2.2.2.3.2h2.8V28.6H35Zm1.6-16.4V1.4h-6v5.3L23.7.4.6 21.2l3.5 4L7.7 22v27.5H12v-7.2h2.8v2.2h1.6v-2.2h2.7v7.2h2.5v-7.2h2.7v2.2H26v-2.2h2.7v7.2h11V47h-6.3V27h6.2v-4.8l3.5 3.2 3.6-3.9-10-9.3Zm-7.9 27.6h-7.1v-7.1h2.7v2.2H26v-2.2h2.7v7.1Zm40.5 3.3h-.6v-3c0-1-.6-2-1.6-2h-4.7l-4.8-5.2c-.2-.3-.6-.5-.9-.5h-3.8v13h6.8l.2-.3a4 4 0 0 1 8 0c0 .2.2.2.3.2h.3c.6 0 1-.4 1-1v-.9c0-.1 0-.3-.2-.3ZM60 38.3h-5.8a.2.2 0 0 1-.3-.3v-4s.1-.2.3-.2h2.2l.2.1 3.6 4c.1.1 0 .4-.2.4Zm3.7 4.5a3 3 0 0 0-3 3 3 3 0 1 0 6 0 3 3 0 0 0-3-3Zm0 4.2c-.6 0-1.2-.5-1.2-1.1 0-.7.6-1.2 1.2-1.2s1.2.5 1.2 1.2c0 .6-.6 1.1-1.2 1.1Zm-19.2-4.2a3 3 0 0 0-3 3 3 3 0 1 0 6 0 3 3 0 0 0-3-3Zm0 4.2c-.6 0-1.1-.5-1.1-1.1 0-.7.5-1.2 1.1-1.2.7 0 1.2.5 1.2 1.2 0 .6-.5 1.1-1.2 1.1Z" fill="#000"/></svg>