<svg xmlns="http://www.w3.org/2000/svg" width="197" height="256" xml:space="preserve"><path d="M194.6 162v92H8.7v-32.3h59v-29h58.2v-30.8h68.7zm-88.8-33.6-24.6-9.3 24.6-32.5c5.4-7.2 4-17.4-3.3-23.2-4.5-3.5-9.4-4.2-16.2-2l-60 24a8.5 8.5 0 0 0-4.8 11.1 8.5 8.5 0 0 0 11.1 4.8l29.5-11.8-14.3 19a16.8 16.8 0 0 0-3.6 10.4l-.4 46-.2.7-20 38.2a10.1 10.1 0 0 0 4.2 13.7 10.2 10.2 0 0 0 13.7-4.2l20-38.2a21 21 0 0 0 2.6-10l1-30.3 27.7 10.4-6.3 31.6a10.1 10.1 0 0 0 7.9 12 10 10 0 0 0 12-8l7.6-37.5a13 13 0 0 0-8.2-14.9zm14.5-97.8a17.6 17.6 0 1 0 0 35.2 17.6 17.6 0 0 0 0-35.2zM89.5 53.3 68.8 2 2.4 28.8 23 80l66.5-26.8z"/></svg>