<svg xmlns="http://www.w3.org/2000/svg" width="256" height="196" xml:space="preserve"><path d="M64.5 147.7a23 23 0 1 0 0 46.2 23 23 0 0 0 0-46.2zm0 32c-4.8 0-8.8-4-8.8-8.9 0-4.8 4-8.8 8.8-8.8s8.9 4 8.9 8.8a9 9 0 0 1-8.9 8.9zm145.5-32a23.1 23.1 0 1 0 0 46.2 23.1 23.1 0 0 0 0-46.2zm0 32c-4.8 0-8.8-4-8.8-8.8 0-4.9 4-8.9 8.8-8.9a9 9 0 0 1 8.9 8.9c0 4.8-4 8.8-8.9 8.8zM2 130.1v27.6c0 4.5 3.5 8.1 8 8.4h22.4c.9-.3 1.6-1 1.8-1.8 2.5-14.5 15.1-24.5 30.3-24.5s27.9 10 30.4 24.5c.2 1 .9 1.5 1.8 1.8H131v-36H2zm250 19h-5v-21c0-7.4-5.5-14-13-14h-24c-.5 0-1.1-.1-1.4-.4l-37.4-36.4c-1.7-1.7-3.8-3.2-6.2-3.2h-27v92h40c1 0 1.5-1 1.7-1.8a30.8 30.8 0 0 1 60.7 0c.1 1 .7 1.8 1.6 1.8h3c4.8 0 9-4.2 9-8.9V151c0-1-1-2-2-2zm-61-35h-41c-1 0-2-1-2-2V86c0-1 1-2 2-2h13c.5 0 1.5.7 2 1l27 26c1 1.2.6 3-1 3zm-63.2-56-26.9-24.6V4.6H85V19L66.4 2 4.6 57.4c-1.6 1.2 8 11.8 9.3 10.5l9.6-8.6v66.4h46.3V93.4h23.5v32.3H109V59.8l8.3 7.7c1.2 1.5 11.7-8.2 10.6-9.4zM60 79.2H42.8V61.4H60v17.8zm30 0H72.8V61.4H90v17.8z"/></svg>