<svg width="51" height="51" fill="none" xmlns="http://www.w3.org/2000/svg"><path d="M3 0h48v48H3z"/><path d="M3 0h48v48H3z"/><path d="M31 20 44 7.5M31 7h13v13" stroke="#fff" stroke-linecap="round" stroke-linejoin="round"/><path d="M17.4 9.8a2 2 0 0 1 1.7 1l2.5 4.4a2 2 0 0 1 0 1.9l-2.3 4.7s.6 3.5 3.5 6.4c2.9 2.8 6.4 3.5 6.4 3.5l4.7-2.3a2 2 0 0 1 1.8 0l4.5 2.5c.6.3 1 1 1 1.7v5c0 2.7-2.4 4.5-4.9 3.7-5-1.7-12.8-5-17.7-9.9-5-5-8.2-12.7-10-17.8a3.8 3.8 0 0 1 3.7-4.8h5Z" fill="#2F88FF" stroke="#fff" stroke-linejoin="round"/></svg>