<svg width="40" height="40" fill="none" xmlns="http://www.w3.org/2000/svg"><path d="M27.5 20a10 10 0 0 0-8.3 15.8c.3.3.7.5 1 .5.4 0 .8-.3 1-.5A7.3 7.3 0 0 1 25 33l5.4-7.5c.3-.5 1-.8 1.7-.3.5.4.8 1.2.3 1.8l-4 5.5c2 .3 4 1.4 5.3 3.1.3.4.6.5 1 .5s.8-.2 1-.5a10 10 0 0 0 1.8-5.7 9.8 9.8 0 0 0-9.9-9.9Z" fill="#000"/><path d="M15 30a12.5 12.5 0 0 1 22.5-7.5V8.7c0-2-1.6-3.7-3.8-3.7H6.3a3.7 3.7 0 0 0-3.7 3.8v22.4c0 2.2 1.6 3.8 3.8 3.8H16c-.6-1.6-1-3.3-1-5Zm.1-20.5c.2-.1.2-.3.3-.4.5-.5 1.2-.5 1.7 0l.3.4.1.5-.1.5-.3.4c-.2.2-.5.3-.9.3h-.4l-.4-.3-.3-.4-.1-.5.1-.5Zm-3.7 0 .2-.4.4-.2c.5-.3 1-.2 1.4.2l.2.4c.2.1.2.4.2.5 0 .4-.2.6-.4.9-.3.2-.5.3-.9.3s-.6 0-.9-.3c-.2-.3-.3-.5-.3-.9v-.5Zm-3.5-.4L8 9l.3-.1c0-.2 0-.2.2-.2H9l.3.2.2.1.1.1.3.4.1.5-.1.5-.3.4c-.2.2-.5.3-.8.3-.4 0-.7 0-1-.3-.2-.3-.3-.5-.3-.9s.1-.6.4-.9Zm.8 8.4H15c.8 0 1.3.5 1.3 1.3 0 .7-.6 1.2-1.3 1.2H8.7c-.7 0-1.2-.5-1.2-1.3 0-.7.5-1.2 1.3-1.2Zm2.6 6.3H8.7c-.7 0-1.2-.6-1.2-1.3 0-.8.5-1.3 1.3-1.3h2.4c.8 0 1.3.6 1.3 1.3 0 .8-.5 1.3-1.3 1.3Z" fill="#000"/></svg>