<svg width="40" height="40" viewBox="0 0 40 40" fill="none" xmlns="http://www.w3.org/2000/svg">
<path d="M27.5 20C22 20 17.5 24.5 17.5 30C17.5 32 18.125 34 19.25 35.75C19.5 36.125 19.875 36.25 20.25 36.25C20.625 36.25 21 36 21.25 35.75C22.125 34.5 23.375 33.5 24.875 33L30.25 25.5C30.625 25 31.375 24.75 32 25.25C32.5 25.625 32.75 26.375 32.25 27L28.25 32.5C30.375 32.75 32.375 33.875 33.625 35.625C33.875 36 34.25 36.125 34.625 36.125C35 36.125 35.375 35.875 35.625 35.625C36.75 34 37.375 32 37.375 29.875C37.5 24.5 33 20 27.5 20Z" fill="black"/>
<path d="M15 30C15 23.125 20.625 17.5 27.5 17.5C31.625 17.5 35.25 19.5 37.5 22.5V8.75C37.5 6.625 35.875 5 33.75 5H6.25C4.125 5 2.5 6.625 2.5 8.75V31.25C2.5 33.375 4.125 35 6.25 35H16C15.375 33.375 15 31.75 15 30ZM15.125 9.5C15.25 9.375 15.25 9.25 15.375 9.125C15.875 8.625 16.625 8.625 17.125 9.125C17.25 9.25 17.375 9.375 17.375 9.5C17.5 9.625 17.5 9.875 17.5 10C17.5 10.125 17.5 10.375 17.375 10.5C17.25 10.625 17.25 10.75 17.125 10.875C16.875 11.125 16.625 11.25 16.25 11.25C16.125 11.25 15.875 11.25 15.75 11.125C15.625 11 15.5 11 15.375 10.875C15.25 10.75 15.125 10.625 15.125 10.5C15 10.375 15 10.125 15 10C15 9.875 15 9.625 15.125 9.5ZM11.375 9.5C11.5 9.375 11.5 9.25 11.625 9.125C11.75 9 11.875 8.875 12 8.875C12.5 8.625 13 8.75 13.375 9.125C13.5 9.25 13.625 9.375 13.625 9.5C13.75 9.625 13.75 9.875 13.75 10C13.75 10.375 13.625 10.625 13.375 10.875C13.125 11.125 12.875 11.25 12.5 11.25C12.125 11.25 11.875 11.125 11.625 10.875C11.375 10.625 11.25 10.375 11.25 10C11.25 9.875 11.25 9.625 11.375 9.5ZM7.875 9.125L8 9C8.125 9 8.125 8.875 8.25 8.875C8.375 8.75 8.375 8.75 8.5 8.75C8.625 8.75 8.875 8.75 9 8.75C9.125 8.75 9.125 8.75 9.25 8.875C9.375 8.875 9.375 9 9.5 9L9.625 9.125C9.75 9.25 9.875 9.375 9.875 9.5C10 9.625 10 9.875 10 10C10 10.125 10 10.375 9.875 10.5C9.875 10.625 9.75 10.75 9.625 10.875C9.375 11.125 9.125 11.25 8.75 11.25C8.375 11.25 8.125 11.125 7.875 10.875C7.625 10.625 7.5 10.375 7.5 10C7.5 9.625 7.625 9.375 7.875 9.125ZM8.75 17.5H15C15.75 17.5 16.25 18 16.25 18.75C16.25 19.5 15.75 20 15 20H8.75C8 20 7.5 19.5 7.5 18.75C7.5 18 8 17.5 8.75 17.5ZM11.25 23.75H8.75C8 23.75 7.5 23.25 7.5 22.5C7.5 21.75 8 21.25 8.75 21.25H11.25C12 21.25 12.5 21.75 12.5 22.5C12.5 23.25 12 23.75 11.25 23.75Z" fill="black"/>
</svg>
