<svg width="32" height="32" viewBox="0 0 32 32" fill="none" xmlns="http://www.w3.org/2000/svg">
<path d="M22 16C17.6 16 14 19.6 14 24C14 25.6 14.5 27.2 15.4 28.6C15.6 28.9 15.9 29 16.2 29C16.5 29 16.8 28.8 17 28.6C17.7 27.6 18.7 26.8 19.9 26.4L24.2 20.4C24.5 20 25.1 19.8 25.6 20.2C26 20.5 26.2 21.1 25.8 21.6L22.6 26C24.3 26.2 25.9 27.1 26.9 28.5C27.1 28.8 27.4 28.9 27.7 28.9C28 28.9 28.3 28.7 28.5 28.5C29.4 27.2 29.9 25.6 29.9 23.9C30 19.6 26.4 16 22 16Z" fill="black"/>
<path d="M12 24C12 18.5 16.5 14 22 14C25.3 14 28.2 15.6 30 18V7C30 5.3 28.7 4 27 4H5C3.3 4 2 5.3 2 7V25C2 26.7 3.3 28 5 28H12.8C12.3 26.7 12 25.4 12 24ZM12.1 7.6C12.2 7.5 12.2 7.4 12.3 7.3C12.7 6.9 13.3 6.9 13.7 7.3C13.8 7.4 13.9 7.5 13.9 7.6C14 7.7 14 7.9 14 8C14 8.1 14 8.3 13.9 8.4C13.8 8.5 13.8 8.6 13.7 8.7C13.5 8.9 13.3 9 13 9C12.9 9 12.7 9 12.6 8.9C12.5 8.8 12.4 8.8 12.3 8.7C12.2 8.6 12.1 8.5 12.1 8.4C12 8.3 12 8.1 12 8C12 7.9 12 7.7 12.1 7.6ZM9.1 7.6C9.2 7.5 9.2 7.4 9.3 7.3C9.4 7.2 9.5 7.1 9.6 7.1C10 6.9 10.4 7 10.7 7.3C10.8 7.4 10.9 7.5 10.9 7.6C11 7.7 11 7.9 11 8C11 8.3 10.9 8.5 10.7 8.7C10.5 8.9 10.3 9 10 9C9.7 9 9.5 8.9 9.3 8.7C9.1 8.5 9 8.3 9 8C9 7.9 9 7.7 9.1 7.6ZM6.3 7.3L6.4 7.2C6.5 7.2 6.5 7.1 6.6 7.1C6.7 7 6.7 7 6.8 7C6.9 7 7.1 7 7.2 7C7.3 7 7.3 7 7.4 7.1C7.5 7.1 7.5 7.2 7.6 7.2L7.7 7.3C7.8 7.4 7.9 7.5 7.9 7.6C8 7.7 8 7.9 8 8C8 8.1 8 8.3 7.9 8.4C7.9 8.5 7.8 8.6 7.7 8.7C7.5 8.9 7.3 9 7 9C6.7 9 6.5 8.9 6.3 8.7C6.1 8.5 6 8.3 6 8C6 7.7 6.1 7.5 6.3 7.3ZM7 14H12C12.6 14 13 14.4 13 15C13 15.6 12.6 16 12 16H7C6.4 16 6 15.6 6 15C6 14.4 6.4 14 7 14ZM9 19H7C6.4 19 6 18.6 6 18C6 17.4 6.4 17 7 17H9C9.6 17 10 17.4 10 18C10 18.6 9.6 19 9 19Z" fill="black"/>
</svg>
