<svg width="24" height="24" xmlns="http://www.w3.org/2000/svg"><path fill-rule="evenodd" clip-rule="evenodd" d="M18.4 5.6A9 9 0 0 0 12.1 3a9 9 0 0 0-7.8 13.5L3 21l4.8-1a9 9 0 0 0 4.2 1c5 0 9-4 9-9a9 9 0 0 0-2.6-6.3m-6.3 13.8a7.4 7.4 0 0 1-3.8-1l-.3-.2-2.8.8.7-2.8-.2-.3a7.4 7.4 0 0 1-1.1-4c0-4 3.3-7.4 7.5-7.4a7.4 7.4 0 0 1 5.2 2.2 7.4 7.4 0 0 1 2.2 5.3c0 4.1-3.3 7.4-7.4 7.4m4-5.5-1.5-.8-.5.1c-.2.1-.6.8-.7 1s-.3 0-.5 0-1-.4-1.8-1.1a5.2 5.2 0 0 1-1.2-1.6v-.5c.2 0 .3-.2.4-.3l.2-.4c.1-.1 0-.3 0-.4l-.7-1.7c-.2-.4-.4-.4-.5-.4a9.7 9.7 0 0 0-.4 0 .8.8 0 0 0-.6.3c-.2.2-.8.8-.8 1.9s.8 2.2 1 2.3c0 .2 1.5 2.4 3.7 3.4l1.3.5H15c.5 0 1.4-.5 1.5-1l.2-1c0-.2-.2-.2-.5-.3"/></svg>