<svg width="24" height="24" viewBox="-2 -2 24 24" xmlns="http://www.w3.org/2000/svg" preserveAspectRatio="xMinYMin" class="jam jam-yelp-circle"><path d="m9.2 12.1-1.4 1.7a.5.5 0 0 0 .2.7l1.4.5a.5.5 0 0 0 .6-.4v-2.2a.5.5 0 0 0-.8-.3zM9 10.4l-2-.7a.5.5 0 0 0-.7.4v1.4c0 .4.3.6.6.5l2-.7a.5.5 0 0 0 0-.9zm2.3.3 2.1-.6a.5.5 0 0 0 .3-.7l-.8-1.2a.5.5 0 0 0-.8 0l-1.3 1.7a.5.5 0 0 0 .5.8zm-1.5-5a.5.5 0 0 0-.7-.6l-1.6.4a.5.5 0 0 0-.3.9L9 9.7a.6.6 0 0 0 1-.1.5.5 0 0 0 0-.3l-.3-3.7zm3.6 6.5-2-.7a.5.5 0 0 0-.6.7l1.3 1.8c.1.3.5.3.7 0l.9-1.1a.5.5 0 0 0-.3-.7z"/><path d="M10 18a8 8 0 1 0 0-16 8 8 0 0 0 0 16zm0 2a10 10 0 1 1 0-20 10 10 0 0 1 0 20z"/></svg>